# xmcd
#
# Track frame offsets: 
#        150
#        17543
#        49600
#        80343
#        100495
#        127747
#        181616
#        216820
#
# Disc length: 3566 seconds
#
# Revision: 0
# Processed by: cddbd v1.5.1PL0 Copyright (c) Steve Scherf et al.
# Submitted via: ExactAudioCopy v0.95a4
#
DISCID=570dec08
DTITLE=Van Morrison - Auld Lang Syne '99
DYEAR=1999
DGENRE=Celtic
TTITLE0=Precious Time
TTITLE1=It's A Man's Man's Man's World > When The Clock Strikes > DLMB
TTITLE2=Vanlose Stairway > Trans-Euro Train
TTITLE3=Raglan Road
TTITLE4=Northern Muse (Solid Ground) > Auld Lang Syne
TTITLE5=And The Healing Has Begun
TTITLE6=It's All Over Now, Baby Blue
TTITLE7=Help Me > Be Bop A Lula > Good Morning Little Schoolgirl
EXTD=
EXTT0=
EXTT1=
EXTT2=
EXTT3=
EXTT4=
EXTT5=
EXTT6=
EXTT7=
PLAYORDER=
